<?xml version="1.0" encoding="utf-8"?>
<!-- Generator: Adobe Illustrator 27.5.0, SVG Export Plug-In . SVG Version: 6.00 Build 0)  -->
<svg version="1.1" xmlns="http://www.w3.org/2000/svg" xmlns:xlink="http://www.w3.org/1999/xlink" x="0px" y="0px"
	 viewBox="0 0 500 500" style="enable-background:new 0 0 500 500;" xml:space="preserve">
<g id="Background_Simple">
	<g>
		<path style="opacity:0.7;fill:#FFFFFF;" d="M67.931,167.086c0,0-27.877,71.988,11.297,144.503
			c39.174,72.516,119.879,110.802,184.469,143.548c64.59,32.746,131.661,16.799,163.534-36.838
			c31.873-53.637-11.845-91.928-11.897-168.418c-0.051-76.49,11.447-96.742-29.963-161.364
			c-41.41-64.623-143.059-78.925-219.9-30.996C88.631,105.45,67.931,167.086,67.931,167.086z"/>
	</g>
	<g>
		<path style="fill:#92E3A9;" d="M437.416,198.78c-18.192-20.118-48.67-22.37-72.371-35.558
			c-40.79-22.696-56.604-74.39-93.712-102.709C247.9,42.631,216.24,35.699,187.928,39.619c-40.189,5.564-78.005,32.5-89.357,71.962
			c-3.15,10.951-4.411,22.826-3.44,35.412c1.817,23.55,6.882,47.403,2.104,70.533c-5.267,25.493-21.854,47.017-31.764,71.088
			c-12.338,29.968-14.037,63.605-8.761,95.581c3.6,21.818,10.776,43.845,25.759,60.109c1.132,1.228,2.311,2.401,3.513,3.548h163.609
			c10.264-13.089,18.045-28.581,27.073-42.324c22.721-34.586,59.096-59.243,98.829-70.809c17.799-5.181,37.082-8.265,51.384-20.059
			c14.716-12.135,21.475-31.496,24.402-50.344C454.823,241.492,452.907,215.911,437.416,198.78z"/>
		<path style="opacity:0.7;fill:#FFFFFF;" d="M437.416,198.78c-18.192-20.118-48.67-22.37-72.371-35.558
			c-40.79-22.696-56.604-74.39-93.712-102.709C247.9,42.631,216.24,35.699,187.928,39.619c-40.189,5.564-78.005,32.5-89.357,71.962
			c-3.15,10.951-4.411,22.826-3.44,35.412c1.817,23.55,6.882,47.403,2.104,70.533c-5.267,25.493-21.854,47.017-31.764,71.088
			c-12.338,29.968-14.037,63.605-8.761,95.581c3.6,21.818,10.776,43.845,25.759,60.109c1.132,1.228,2.311,2.401,3.513,3.548h163.609
			c10.264-13.089,18.045-28.581,27.073-42.324c22.721-34.586,59.096-59.243,98.829-70.809c17.799-5.181,37.082-8.265,51.384-20.059
			c14.716-12.135,21.475-31.496,24.402-50.344C454.823,241.492,452.907,215.911,437.416,198.78z"/>
	</g>
</g>
<g id="Stairs_down">
	<polygon style="opacity:0.2;" points="234.461,447.879 234.461,248.274 68.176,256.553 182.618,447.879 	"/>
	<g>
		<rect x="53.43" y="73.43" style="opacity:0.2;" width="168.57" height="200.76"/>
		<polygon style="opacity:0.2;" points="258.32,274.19 53.43,274.19 53.43,73.43 165.08,73.43 176.83,106.67 181.29,106.67 
			193.12,140.18 197.59,140.18 209.42,173.68 213.89,173.68 222,196.65 225.72,207.19 230.18,207.19 242.02,240.69 246.48,240.69 		
			"/>
		<rect x="53.43" y="73.43" style="opacity:0.2;" width="168.57" height="15.394"/>
		<rect x="53.43" y="106.84" style="opacity:0.2;" width="168.57" height="17.394"/>
		<rect x="53.43" y="140.249" style="opacity:0.2;" width="168.57" height="19.394"/>
		<rect x="53.43" y="173.659" style="opacity:0.2;" width="168.57" height="21.394"/>
		<rect x="53.43" y="207.068" style="opacity:0.2;" width="168.57" height="23.394"/>
		<rect x="53.43" y="240.478" style="opacity:0.2;" width="168.57" height="25.394"/>
	</g>
	<g>
		
			<line style="fill:#757575;stroke:#263238;stroke-linecap:round;stroke-linejoin:round;stroke-miterlimit:10;" x1="53.55" y1="107.345" x2="227.209" y2="107.345"/>
		
			<line style="fill:#757575;stroke:#263238;stroke-linecap:round;stroke-linejoin:round;stroke-miterlimit:10;" x1="53.55" y1="140.628" x2="227.209" y2="140.628"/>
		
			<line style="fill:#757575;stroke:#263238;stroke-linecap:round;stroke-linejoin:round;stroke-miterlimit:10;" x1="53.55" y1="173.912" x2="227.209" y2="173.912"/>
		
			<line style="fill:#757575;stroke:#263238;stroke-linecap:round;stroke-linejoin:round;stroke-miterlimit:10;" x1="53.55" y1="207.195" x2="227.209" y2="207.195"/>
		
			<line style="fill:#757575;stroke:#263238;stroke-linecap:round;stroke-linejoin:round;stroke-miterlimit:10;" x1="53.55" y1="240.478" x2="227.209" y2="240.478"/>
		
			<line style="fill:#757575;stroke:#263238;stroke-linecap:round;stroke-linejoin:round;stroke-miterlimit:10;" x1="53.55" y1="273.761" x2="227.209" y2="273.761"/>
	</g>
</g>
<g id="Stairs_up">
	<polygon style="opacity:0.2;" points="272.054,448.077 439.13,448.077 429.477,409.773 422.75,409.773 413.097,371.475 
		406.369,371.475 396.717,333.157 389.989,333.157 380.336,294.922 373.608,294.922 363.956,257.023 357.228,257.023 
		347.575,218.499 340.848,218.499 331.195,180.03 323.74,180.03 314.087,141.647 307.359,141.647 297.707,103.345 290.979,103.345 
		283.357,72.978 272.054,72.978 	"/>
	<g>
		<polygon style="opacity:0.6;fill:#757575;" points="272.054,409.773 429.45,409.773 421.13,405.13 272.054,405.13 		"/>
		<polygon style="opacity:0.6;fill:#757575;" points="272.054,371.475 413.45,371.475 405.13,366.783 272.054,366.783 		"/>
		<polygon style="opacity:0.6;fill:#757575;" points="272.054,333.157 396.45,333.157 388.13,328.435 272.054,328.435 		"/>
		<polygon style="opacity:0.6;fill:#757575;" points="272.054,294.922 380.45,294.922 372.13,290.261 272.054,290.261 		"/>
		<polygon style="opacity:0.6;fill:#757575;" points="272.054,257.023 364.45,257.023 356.13,252.696 272.054,252.696 		"/>
		<polygon style="opacity:0.6;fill:#757575;" points="272.054,218.499 348.45,218.499 340.13,214.087 272.054,214.087 		"/>
		<polygon style="opacity:0.6;fill:#757575;" points="272.054,180.03 330.45,180.03 322.13,175.478 272.054,175.478 		"/>
		<polygon style="opacity:0.6;fill:#757575;" points="272.054,141.647 313.45,141.647 305.13,136.87 272.054,136.87 		"/>
		<polygon style="opacity:0.6;fill:#757575;" points="272.054,103.345 297.45,103.345 289.13,98.261 272.054,98.261 		"/>
	</g>
	<g>
		
			<line style="fill:#757575;stroke:#263238;stroke-linecap:round;stroke-linejoin:round;stroke-miterlimit:10;" x1="272.054" y1="218.499" x2="439.45" y2="218.499"/>
		
			<line style="fill:#757575;stroke:#263238;stroke-linecap:round;stroke-linejoin:round;stroke-miterlimit:10;" x1="272.054" y1="257.023" x2="439.45" y2="257.023"/>
		
			<line style="fill:#757575;stroke:#263238;stroke-linecap:round;stroke-linejoin:round;stroke-miterlimit:10;" x1="272.054" y1="294.922" x2="439.45" y2="294.922"/>
		
			<line style="fill:#757575;stroke:#263238;stroke-linecap:round;stroke-linejoin:round;stroke-miterlimit:10;" x1="272.054" y1="333.157" x2="439.45" y2="333.157"/>
		
			<line style="fill:#757575;stroke:#263238;stroke-linecap:round;stroke-linejoin:round;stroke-miterlimit:10;" x1="272.054" y1="409.773" x2="439.45" y2="409.773"/>
		
			<line style="fill:#757575;stroke:#263238;stroke-linecap:round;stroke-linejoin:round;stroke-miterlimit:10;" x1="272.054" y1="180.03" x2="439.45" y2="180.03"/>
		
			<line style="fill:#757575;stroke:#263238;stroke-linecap:round;stroke-linejoin:round;stroke-miterlimit:10;" x1="272.054" y1="141.647" x2="439.45" y2="141.647"/>
		
			<line style="fill:#757575;stroke:#263238;stroke-linecap:round;stroke-linejoin:round;stroke-miterlimit:10;" x1="272.054" y1="103.345" x2="439.45" y2="103.345"/>
		
			<line style="fill:#757575;stroke:#263238;stroke-linecap:round;stroke-linejoin:round;stroke-miterlimit:10;" x1="272.054" y1="371.475" x2="439.45" y2="371.475"/>
	</g>
</g>
<g id="Arrows">
	<g style="opacity:0.8;">
		<polygon style="fill:#92E3A9;" points="374.344,324.618 358.895,311.405 343.447,324.618 349.132,324.618 349.132,431.513 
			368.658,431.513 368.658,324.618 		"/>
		<polygon style="fill:#92E3A9;" points="374.344,170.618 358.895,157.405 343.447,170.618 349.132,170.618 349.132,277.513 
			368.658,277.513 368.658,170.618 		"/>
		<rect x="349.132" y="72.846" style="fill:#92E3A9;" width="19.526" height="50.667"/>
	</g>
</g>
<g id="Character">
	<g>
		<g>
			<defs>
				<path id="XMLID_149_" d="M91.842,349.39c0,0-2.699,3.28-2.699,7.632c0,4.352,0,1.978,0,1.978S73.3,414.78,72.315,427.044
					c-0.985,12.264,1.949,21.265,1.949,21.265h27.767c0,0,0.371-8.606,0-11.77c0,0,14.805-33.626,17.969-32.044l5.175,7.912
					c0,0,2.534,25.123,1.647,35.902h30.761c0,0-0.802-88.122-8.511-108.694C141.363,319.044,91.842,349.39,91.842,349.39z"/>
			</defs>
			<use xlink:href="#XMLID_149_"  style="overflow:visible;fill:#263238;"/>
			<clipPath id="XMLID_00000114791204075813291770000010137208849329808824_">
				<use xlink:href="#XMLID_149_"  style="overflow:visible;"/>
			</clipPath>
			<path style="opacity:0.3;clip-path:url(#XMLID_00000114791204075813291770000010137208849329808824_);fill:#FFFFFF;" d="
				M156.79,415.62c-22.416-10.137-37.84-22.07-37.84-22.07c-9.236,15.296-27.96,48-38.72,46.42c-3.66-0.54-6.24-2.44-8.04-4.73
				c-0.13-2.49-0.12-5.25,0.12-8.2C73.3,414.78,89.14,359,89.14,359v-1.98c0-4.35,2.7-7.63,2.7-7.63s13.03-7.99,26.76-12.99
				l25.72-2.31c2.13,1.13,3.78,2.93,4.75,5.53C153.68,351.91,155.82,388.3,156.79,415.62z"/>
			
				<path style="clip-path:url(#XMLID_00000114791204075813291770000010137208849329808824_);fill:none;stroke:#263238;stroke-linecap:round;stroke-linejoin:round;stroke-miterlimit:10;" d="
				M106.298,378.843c5.567,4.434,11.054,9.771,14.009,16.355"/>
			
				<path style="clip-path:url(#XMLID_00000114791204075813291770000010137208849329808824_);fill:none;stroke:#263238;stroke-linecap:round;stroke-linejoin:round;stroke-miterlimit:10;" d="
				M100.742,374.824c1.058,0.678,2.089,1.399,3.102,2.143"/>
			
				<path style="clip-path:url(#XMLID_00000114791204075813291770000010137208849329808824_);fill:none;stroke:#263238;stroke-linecap:round;stroke-linejoin:round;stroke-miterlimit:10;" d="
				M131.416,393.531c1.738,0.897,3.515,1.719,5.326,2.458"/>
			
				<path style="clip-path:url(#XMLID_00000114791204075813291770000010137208849329808824_);fill:none;stroke:#263238;stroke-linecap:round;stroke-linejoin:round;stroke-miterlimit:10;" d="
				M109.714,376.802c5.126,5.898,11.552,10.886,18.263,14.832"/>
			
				<path style="clip-path:url(#XMLID_00000114791204075813291770000010137208849329808824_);fill:none;stroke:#263238;stroke-linecap:round;stroke-linejoin:round;stroke-miterlimit:10;" d="
				M118.945,357.945c0,0,2.68,22.585,1.248,28.451c0,0,1.455,6.231-1.248,11.374"/>
			
				<path style="clip-path:url(#XMLID_00000114791204075813291770000010137208849329808824_);fill:none;stroke:#263238;stroke-linecap:round;stroke-linejoin:round;stroke-miterlimit:10;" d="
				M115.496,366.417c0.318,4.779-1.31,12.737,5.113,13.748"/>
			
				<path style="clip-path:url(#XMLID_00000114791204075813291770000010137208849329808824_);fill:none;stroke:#263238;stroke-linecap:round;stroke-linejoin:round;stroke-miterlimit:10;" d="
				M114.847,358.219c0.162,1.772,0.309,3.544,0.444,5.318"/>
			
				<path style="clip-path:url(#XMLID_00000114791204075813291770000010137208849329808824_);fill:none;stroke:#263238;stroke-linecap:round;stroke-linejoin:round;stroke-miterlimit:10;" d="
				M145.714,350.461c0,0,5.87,5.339,7.88,14.258"/>
			
				<path style="clip-path:url(#XMLID_00000114791204075813291770000010137208849329808824_);fill:none;stroke:#263238;stroke-linecap:round;stroke-linejoin:round;stroke-miterlimit:10;" d="
				M95.077,355.582c0,0-2.374,2.231-3.758,4.407c-1.385,2.176-3.172,2.551-3.172,2.551"/>
			
				<path style="clip-path:url(#XMLID_00000114791204075813291770000010137208849329808824_);fill:none;stroke:#263238;stroke-linecap:round;stroke-linejoin:round;stroke-miterlimit:10;" d="
				M151.148,409.355c1.557,0.517,3.144,0.957,4.759,1.253"/>
			
				<path style="clip-path:url(#XMLID_00000114791204075813291770000010137208849329808824_);fill:none;stroke:#263238;stroke-linecap:round;stroke-linejoin:round;stroke-miterlimit:10;" d="
				M120.614,393.137c8.586,5.802,17.733,11.242,27.38,15.067"/>
			<use xlink:href="#XMLID_149_"  style="overflow:visible;fill:none;stroke:#263238;stroke-miterlimit:10;"/>
		</g>
		<path style="fill:#263238;" d="M92.308,346.868c0,0,1.319,12.132,26.637,11.077c25.319-1.055,29.363-15.033,29.363-15.033
			L92.308,346.868z"/>
		<g>
			<defs>
				<path id="XMLID_152_" d="M69.396,328.605c0,0-7.343,16.382-8.054,31.78c-0.711,15.397-2.132,36.243-2.132,36.243
					s-0.474,5.922,0,9.712c0.474,3.79,1.421,8.765,1.421,8.765l6.58,4.027h3.369c0,0-0.579-2.369-3.369-3.079
					c-2.79-0.711-2.421-3.079-2.421-3.079s0.474-7.343,2.421-7.58c1.948-0.237,3.369,3.79,3.369,3.79s-1.895,2.843,0,4.264
					c1.895,1.421,1.375,0.237,2.82-3.553c1.444-3.79-0.214-11.607-2.583-13.976c-2.369-2.369-1.941-13.029,2.583-25.82
					c4.524-12.792,10.92-22.741,10.92-33.401C84.32,326.037,69.396,328.605,69.396,328.605z"/>
			</defs>
			<use xlink:href="#XMLID_152_"  style="overflow:visible;fill:#FFFFFF;"/>
			<clipPath id="XMLID_00000114792832494769016660000012909447882192403598_">
				<use xlink:href="#XMLID_152_"  style="overflow:visible;"/>
			</clipPath>
			<path style="opacity:0.2;clip-path:url(#XMLID_00000114792832494769016660000012909447882192403598_);" d="M69.396,328.605
				c0,0-7.343,16.382-8.054,31.78c-0.711,15.397-2.132,36.243-2.132,36.243s-0.474,5.922,0,9.712
				c0.474,3.79,1.421,8.765,1.421,8.765l6.58,4.027h3.369c0,0-0.579-2.369-3.369-3.079c-2.79-0.711-2.421-3.079-2.421-3.079
				s0.474-7.343,2.421-7.58c1.948-0.237,3.369,3.79,3.369,3.79s-1.895,2.843,0,4.264c1.895,1.421,1.375,0.237,2.82-3.553
				c1.444-3.79-0.214-11.607-2.583-13.976c-2.369-2.369-1.941-13.029,2.583-25.82c4.524-12.792,10.92-22.741,10.92-33.401
				C84.32,326.037,69.396,328.605,69.396,328.605z"/>
			
				<use xlink:href="#XMLID_152_"  style="overflow:visible;fill:none;stroke:#263238;stroke-linecap:round;stroke-linejoin:round;stroke-miterlimit:10;"/>
		</g>
		
			<rect x="113.534" y="353.154" transform="matrix(0.9983 -0.0583 0.0583 0.9983 -20.522 7.5024)" style="fill:#FFFFFF;stroke:#263238;stroke-linecap:round;stroke-linejoin:round;stroke-miterlimit:10;" width="9.655" height="4.856"/>
		<path style="fill:#757575;stroke:#263238;stroke-linecap:round;stroke-linejoin:round;stroke-miterlimit:10;" d="M136.615,355.582
			c0-4.077-2.242-6.604-2.242-6.604l2.308-0.923c3.231,1.582,2.308,6.725,2.308,6.725"/>
		<path style="fill:#757575;stroke:#263238;stroke-linecap:round;stroke-linejoin:round;stroke-miterlimit:10;" d="M100.869,357.988
			c0-4.077,2.242-6.604,2.242-6.604l-2.308-0.923c-3.231,1.582-2.308,6.725-2.308,6.725"/>
		<g>
			<defs>
				<path id="XMLID_153_" d="M75.692,258.128c0,0-7.121,20.96-7.517,71.993c0,0-2.769,1.187,0,6.725
					c2.769,5.538,20.374,11.67,17.542,2.63c0,0,8.172-25.576,7.777-40.608C93.099,283.835,75.692,258.128,75.692,258.128z"/>
			</defs>
			<use xlink:href="#XMLID_153_"  style="overflow:visible;fill:#92E3A9;"/>
			<clipPath id="XMLID_00000165939140002225374070000011373089399391629981_">
				<use xlink:href="#XMLID_153_"  style="overflow:visible;"/>
			</clipPath>
			<path style="opacity:0.2;clip-path:url(#XMLID_00000165939140002225374070000011373089399391629981_);" d="M85.72,339.48
				c2.83,9.04-14.77,2.9-17.54-2.63c-2.77-5.54,0-6.73,0-6.73c0-0.51,0.01-1.02,0.01-1.53c6.35-3.88,13.91-11.94,13.91-11.94
				c-4.36-25.74,0.64-46.04,0.79-46.64l10.46,33.8C92.29,318.9,85.72,339.48,85.72,339.48z"/>
			
				<use xlink:href="#XMLID_153_"  style="overflow:visible;fill:none;stroke:#263238;stroke-linecap:round;stroke-linejoin:round;stroke-miterlimit:10;"/>
		</g>
		<g>
			<defs>
				<path id="XMLID_154_" d="M153.137,250.057c9.061,3.712,21.852,51.247,21.852,51.247s13.189-0.132,12.134,12.992
					c-1.055,13.124-19.255,22.549-33.986-12.992C143.99,279.236,153.137,250.057,153.137,250.057z"/>
			</defs>
			<use xlink:href="#XMLID_154_"  style="overflow:visible;fill:#92E3A9;"/>
			<clipPath id="XMLID_00000169539573745663456660000000315412126187754913_">
				<use xlink:href="#XMLID_154_"  style="overflow:visible;"/>
			</clipPath>
			<path style="opacity:0.2;clip-path:url(#XMLID_00000169539573745663456660000000315412126187754913_);" d="M187.12,314.3
				c-1.05,13.12-19.25,22.55-33.98-13c-1.79-4.32-2.89-8.93-3.48-13.53l3.57-14.81c0,0,9.5,26.5,11.67,40.15
				c0,0,0.59-3.36,1.58-4.15c0,0-1.58,12.06,7.72,15.42c6.63,2.41,10.75-8.51,12.57-14.95C187.13,310.8,187.27,312.42,187.12,314.3z
				"/>
			
				<use xlink:href="#XMLID_154_"  style="overflow:visible;fill:none;stroke:#263238;stroke-linecap:round;stroke-linejoin:round;stroke-miterlimit:10;"/>
		</g>
		<path style="fill:#92E3A9;stroke:#263238;stroke-linecap:round;stroke-linejoin:round;stroke-miterlimit:10;" d="M75.692,258.128
			c0,0,12.551-11.658,37.542-14.026s37.542,5.246,39.903,5.955s4.688,30.125,0.295,53.847c-2.758,14.895-1.506,29.276-0.679,35.689
			c0.255,1.976-1.297,3.19-3.037,4.162c-13.006,7.263-31.841,12.871-54.302,6.866c-3.438-0.919-6.288-3.224-5.534-6.702
			c1.352-6.24,2.105-17.052-2.382-32.473C79.942,285.474,75.692,258.128,75.692,258.128z"/>
		<g>
			<defs>
				<path id="XMLID_151_" d="M97.031,256.617c0,0-2.63-13.929,17.354-16.372c19.984-2.443,22.325,11.669,22.325,11.669l-6.921-2.228
					l-9.78,12.269l-18.58-7.317L97.031,256.617z"/>
			</defs>
			<use xlink:href="#XMLID_151_"  style="overflow:visible;fill:#92E3A9;"/>
			<clipPath id="XMLID_00000145054731672644922110000016408629309190625443_">
				<use xlink:href="#XMLID_151_"  style="overflow:visible;"/>
			</clipPath>
			<path style="opacity:0.2;clip-path:url(#XMLID_00000145054731672644922110000016408629309190625443_);" d="M97.031,256.617
				c0,0-2.63-13.929,17.354-16.372c19.984-2.443,22.325,11.669,22.325,11.669l-6.921-2.228l-9.78,12.269l-18.58-7.317
				L97.031,256.617z"/>
			
				<use xlink:href="#XMLID_151_"  style="overflow:visible;fill:none;stroke:#263238;stroke-linecap:round;stroke-linejoin:round;stroke-miterlimit:10;"/>
		</g>
		<g>
			<defs>
				<path id="XMLID_155_" d="M102.33,227c0,0,6.462,17.103,0.923,23.057c0,0,4.615,6.349,16.035,9.924c0,0,9.21-9.255,8.547-13.112
					c0,0-3.98-3.042-1.013-9.917C129.788,230.078,116.922,220.271,102.33,227z"/>
			</defs>
			<use xlink:href="#XMLID_155_"  style="overflow:visible;fill:#FFFFFF;"/>
			<clipPath id="XMLID_00000116937023476476062120000012191732649888300215_">
				<use xlink:href="#XMLID_155_"  style="overflow:visible;"/>
			</clipPath>
			<path style="opacity:0.2;clip-path:url(#XMLID_00000116937023476476062120000012191732649888300215_);" d="M127.82,247.81
				c-1.55,1.46-3.37,2.9-5.18,3.72c-4.7,2.15-0.56-6.35-0.56-6.35c-3.99-2.91-5.27-17.52-5.27-17.52l5.22-0.28
				c4.1,2.5,6.18,6.35,4.79,9.57c-2.97,6.88,1.01,9.92,1.01,9.92C127.88,247.16,127.88,247.47,127.82,247.81z"/>
			
				<use xlink:href="#XMLID_155_"  style="overflow:visible;fill:none;stroke:#263238;stroke-linecap:round;stroke-linejoin:round;stroke-miterlimit:10;"/>
		</g>
		<path style="fill:#FFFFFF;stroke:#263238;stroke-linecap:round;stroke-linejoin:round;stroke-miterlimit:10;" d="M176.176,295.703
			c0,0,12.132-17.703,12.671-21.877c0.67-5.184,9.746-15.486,12.647-15.53c2.901-0.044,8.176,10.422,8.703,12.31
			c0.527,1.888-4.032,11.48-4.032,11.48s-6.583,4.979-11.001,4.913c0,0-3.56,26.853-13.055,33.231
			c-9.494,6.378-14.02-0.396-13.983-9.099C168.165,302.429,176.176,295.703,176.176,295.703z"/>
		<path style="fill:#263238;" d="M121.775,279.415c0,0.781-0.633,1.415-1.415,1.415c-0.781,0-1.415-0.634-1.415-1.415
			S119.578,278,120.36,278C121.141,278,121.775,278.633,121.775,279.415z"/>
		<circle style="fill:#263238;" cx="120.308" cy="306.404" r="1.415"/>
		<path style="fill:#263238;" d="M120.36,334.075c0,0.781-0.633,1.415-1.415,1.415c-0.781,0-1.415-0.633-1.415-1.415
			s0.633-1.415,1.415-1.415C119.726,332.66,120.36,333.294,120.36,334.075z"/>
		<path style="fill:none;stroke:#263238;stroke-linecap:round;stroke-linejoin:round;stroke-miterlimit:10;" d="M135.56,271.415
			c0,0,8.176-0.816,12.396,0c0,0,0.791,9.783,0,15.322l-6.022,3.783L135.56,287c0,0-0.791-8.967-1.055-12.659"/>
		<path style="fill:none;stroke:#263238;stroke-linecap:round;stroke-linejoin:round;stroke-miterlimit:10;" d="M126.821,236.953
			c0,0-5.81,8.028-6.514,14.004"/>
		<g>
			<path style="fill:#FFFFFF;stroke:#263238;stroke-linecap:round;stroke-linejoin:round;stroke-miterlimit:10;" d="
				M102.194,230.174c-1.544-2.126-2.717-4.681-3.362-7.747c-4.167-19.808-0.738-24.098,6.549-26.356
				c27.033-8.379,24.408,13.696,26.79,18.159s6.46,4.262,6.549,6.581c0.035,0.914-3.126,1.9-3.126,1.9s5.507,16.09-0.447,17.049
				c-2.302,0.371-8.929-3.857-14.839-4.585"/>
			<path style="fill:none;stroke:#263238;stroke-linecap:round;stroke-linejoin:round;stroke-miterlimit:10;" d="M127.705,206.488
				c0,0-4.018,0.298-5.06,3.87"/>
			<path style="fill:#263238;" d="M127.708,212.556c0.115,0.938-0.188,1.747-0.678,1.808c-0.49,0.06-0.98-0.652-1.095-1.59
				c-0.115-0.938,0.188-1.748,0.678-1.808C127.102,210.906,127.592,211.618,127.708,212.556z"/>
			<path style="fill:#263238;" d="M136.024,224.078c0,0-0.803,2.205-5.492,1.684c-1.129-0.126-3.711,2.381-3.711,2.381
				s-6.409-0.819-10.279-7.59l-1.935,2.411c0,0,2.53,14.184,7.144,18.649c4.614,4.465,6.4,1.563,6.4,1.563s4.242,1.232,6.4,0.355
				c2.158-0.876,2.158-1.844,2.158-1.844s3.051,0.496,3.87-1.166c0.818-1.662,1.055-10.083-3.112-12.092
				C137.466,228.429,139.953,226.263,136.024,224.078z"/>
			<path style="fill:none;stroke:#FFFFFF;stroke-linecap:round;stroke-linejoin:round;stroke-miterlimit:10;" d="M136.709,228.813
				c0,0-4.093,1.786-6.921,1.265"/>
			<path style="fill:#263238;" d="M114.608,222.964l2.3-1.802c0,0-1.421-5.371,0-8.497c1.421-3.126,0.974-9.525-0.738-11.014
				c0,0,5.401-4.125,11.184-2.323c5.783,1.802,0-2.589,0-2.589s4.443-0.074,4.741-1.191c0.298-1.116-1.191-4.763-6.921-4.539
				c0,0,2.381-1.042,1.191-3.497c-1.191-2.456-22.92-1.488-27.236,7.144c0,0-1.741,0-2.098-2.084c-0.357-2.084-2.396,1.414,0,3.126
				c0,0-6.683-0.372-5.566,16.223c1.116,16.595,8.973,18.052,12.869,20.407c0,0,1.581-1.278,1.227-5.173
				c-0.336-3.695-2.718-9.103,1.457-11.364C115.151,211.384,114.608,222.964,114.608,222.964z"/>
			<path style="fill:#FFFFFF;stroke:#263238;stroke-linecap:round;stroke-linejoin:round;stroke-miterlimit:10;" d="
				M112.416,216.842c0,0-4.093-3.734-6.623-3.138c-2.53,0.595-1.637,10.195,1.637,13.023s5.879,3.423,6.623,2.084
				c0.744-1.339,0-2.828,0-2.828"/>
		</g>
		<path style="fill:none;stroke:#263238;stroke-linecap:round;stroke-linejoin:round;stroke-miterlimit:10;" d="M103.111,332.463
			c0,0,7.251,9.88,18.664,11.615"/>
		<path style="fill:none;stroke:#263238;stroke-linecap:round;stroke-linejoin:round;stroke-miterlimit:10;" d="M148.308,316.011
			c0,0-4.044,7.469-13.802,10.064"/>
		<path style="fill:none;stroke:#263238;stroke-linecap:round;stroke-linejoin:round;stroke-miterlimit:10;" d="M68.176,330.121
			c0,0,2.242,7.728,14.637,8.15"/>
		<path style="fill:none;stroke:#263238;stroke-linecap:round;stroke-linejoin:round;stroke-miterlimit:10;" d="M77.275,290.519
			c0,0,1.516,12.343,8.802,15.884"/>
		<path style="fill:none;stroke:#263238;stroke-linecap:round;stroke-linejoin:round;stroke-miterlimit:10;" d="M159.824,279.415
			c0,0-0.138,10.82-4.948,14.478"/>
		<path style="fill:none;stroke:#263238;stroke-linecap:round;stroke-linejoin:round;stroke-miterlimit:10;" d="M167.377,322.742
			c0,0-7.298-13.324,0.75-20.182"/>
		<path style="fill:#FFFFFF;stroke:#263238;stroke-linecap:round;stroke-linejoin:round;stroke-miterlimit:10;" d="M207.602,265.201
			c0,0,1.437,3.122,0,5.406c-1.437,2.284-2.284,2.745-2.284,2.745"/>
		<path style="fill:#FFFFFF;stroke:#263238;stroke-linecap:round;stroke-linejoin:round;stroke-miterlimit:10;" d="M195.913,282.912
			c2.859-3.692,1.268-9.561,1.268-9.561s2.467-2.967,2.071-6.153c-0.396-3.186-2.505-3.408-2.505-3.408
			c0.087,2.465-2.901,5.67-4.22,6.815c-1.319,1.145-1.978,3.998-1.978,3.998"/>
	</g>
</g>
<g id="Wall">
	<g>
		<polyline style="fill:none;stroke:#263238;stroke-linecap:round;stroke-linejoin:round;stroke-miterlimit:10;" points="
			440.45,448.31 206.17,448.31 198.17,448.31 53.55,448.31 		"/>
		<polyline style="fill:none;stroke:#263238;stroke-linecap:round;stroke-linejoin:round;stroke-miterlimit:10;" points="
			53.55,73.31 287.83,73.31 295.83,73.31 440.45,73.31 		"/>
	</g>
	<g>
		<g>
			<rect x="222" y="33.95" style="fill:#FFFFFF;" width="50" height="418.9"/>
		</g>
		<rect x="222" y="95.241" style="fill:#92E3A9;" width="50" height="69.703"/>
		<g>
			<g>
				<path style="fill:#FFFFFF;" d="M237.965,123.872v20.27c0,1.877,0.826,2.553,2.139,2.553c1.314,0,2.14-0.676,2.14-2.553v-20.27
					h3.904v20.007c0,4.204-2.102,6.606-6.156,6.606s-6.156-2.402-6.156-6.606v-20.007H237.965z"/>
				<path style="fill:#FFFFFF;" d="M261.199,130.366v3.416c0,4.204-2.026,6.494-6.156,6.494h-1.951v9.872h-4.13v-26.275h6.082
					C259.173,123.872,261.199,126.162,261.199,130.366z M253.092,127.626v8.896h1.951c1.314,0,2.027-0.601,2.027-2.477v-3.941
					c0-1.877-0.713-2.477-2.027-2.477H253.092z"/>
			</g>
			<g>
				<polygon style="fill:#FFFFFF;" points="247.066,103.319 234.688,115.697 259.445,115.697 				"/>
			</g>
		</g>
		<g>
			<rect x="222" y="87.789" style="fill:#92E3A9;" width="50" height="3.607"/>
			<rect x="222" y="168.789" style="fill:#92E3A9;" width="50" height="3.607"/>
		</g>
		
			<line style="fill:#FFFFFF;stroke:#263238;stroke-linecap:round;stroke-linejoin:round;stroke-miterlimit:10;" x1="222" y1="33.954" x2="222" y2="452.846"/>
		
			<line style="fill:#FFFFFF;stroke:#263238;stroke-linecap:round;stroke-linejoin:round;stroke-miterlimit:10;" x1="272" y1="452.846" x2="272" y2="33.954"/>
	</g>
	<g>
		<g>
			
				<rect x="199.296" y="311.014" style="fill:#757575;stroke:#263238;stroke-linecap:round;stroke-linejoin:round;stroke-miterlimit:10;" width="22.704" height="5.258"/>
			
				<rect x="199.296" y="365.324" style="fill:#757575;stroke:#263238;stroke-linecap:round;stroke-linejoin:round;stroke-miterlimit:10;" width="22.704" height="5.258"/>
			
				<rect x="199.296" y="419.634" style="fill:#757575;stroke:#263238;stroke-linecap:round;stroke-linejoin:round;stroke-miterlimit:10;" width="22.704" height="5.258"/>
		</g>
		<g>
			
				<rect x="271.905" y="92.029" style="fill:#757575;stroke:#263238;stroke-linecap:round;stroke-linejoin:round;stroke-miterlimit:10;" width="22.704" height="5.258"/>
			
				<rect x="271.905" y="146.339" style="fill:#757575;stroke:#263238;stroke-linecap:round;stroke-linejoin:round;stroke-miterlimit:10;" width="22.704" height="5.258"/>
			
				<rect x="271.905" y="200.649" style="fill:#757575;stroke:#263238;stroke-linecap:round;stroke-linejoin:round;stroke-miterlimit:10;" width="22.704" height="5.258"/>
		</g>
		<g>
			<path style="fill:#757575;stroke:#263238;stroke-linecap:round;stroke-linejoin:round;stroke-miterlimit:10;" d="M295.83,73.31
				V258.3c0,2.21-1.79,4-4,4h-85.66v186.01h-8V258.3c0-2.21,1.79-4,4-4h85.66V73.31H295.83z"/>
		</g>
		<g>
			<path style="fill:#999999;stroke:#263238;stroke-linecap:round;stroke-linejoin:round;stroke-miterlimit:10;" d="
				M291.834,262.296h-89.669c-2.209,0-4-1.791-4-4c0-2.209,1.791-4,4-4h89.669c2.209,0,4,1.791,4,4
				C295.834,260.505,294.043,262.296,291.834,262.296z"/>
		</g>
	</g>
</g>
</svg>
