<?xml version="1.0" encoding="utf-8"?>
<!-- Generator: Adobe Illustrator 27.5.0, SVG Export Plug-In . SVG Version: 6.00 Build 0)  -->
<svg version="1.1" xmlns="http://www.w3.org/2000/svg" xmlns:xlink="http://www.w3.org/1999/xlink" x="0px" y="0px"
	 viewBox="0 0 500 500" style="enable-background:new 0 0 500 500;" xml:space="preserve">
<g id="Background_Simple">
	<g>
		<path style="fill:#C6FF00;" d="M313.481,66.743c0,0-63.023-18.557-125.255,18.977c-62.232,37.535-93.969,107.533-121.198,163.694
			C39.8,305.575,54.896,360.597,102.06,383.705s79.596-15.967,146.008-21.057c66.412-5.089,84.21,3.188,139.547-35.695
			c55.337-38.884,65.861-124.81,22.814-185.89S313.481,66.743,313.481,66.743z"/>
		<path style="opacity:0.7;fill:#FFFFFF;" d="M313.481,66.743c0,0-63.023-18.557-125.255,18.977
			c-62.232,37.535-93.969,107.533-121.198,163.694C39.8,305.575,54.896,360.597,102.06,383.705s79.596-15.967,146.008-21.057
			c66.412-5.089,84.21,3.188,139.547-35.695c55.337-38.884,65.861-124.81,22.814-185.89S313.481,66.743,313.481,66.743z"/>
	</g>
</g>
<g id="Menu">
	<g>
		
			<rect x="67.361" y="83.708" style="fill:none;stroke:#263238;stroke-width:0.9772;stroke-linecap:round;stroke-linejoin:round;stroke-miterlimit:10;" width="123.017" height="95.822"/>
		
			<rect x="194.934" y="83.708" style="fill:none;stroke:#263238;stroke-width:0.9772;stroke-linecap:round;stroke-linejoin:round;stroke-miterlimit:10;" width="123.017" height="95.822"/>
		
			<rect x="322.508" y="83.708" style="fill:none;stroke:#263238;stroke-width:0.9772;stroke-linecap:round;stroke-linejoin:round;stroke-miterlimit:10;" width="123.017" height="95.822"/>
		
			<line style="fill:none;stroke:#263238;stroke-width:0.9772;stroke-linecap:round;stroke-linejoin:round;stroke-miterlimit:10;" x1="77.297" y1="97.523" x2="116.062" y2="97.523"/>
		
			<line style="fill:none;stroke:#263238;stroke-width:0.9772;stroke-linecap:round;stroke-linejoin:round;stroke-miterlimit:10;" x1="77.297" y1="105.83" x2="116.062" y2="105.83"/>
		
			<line style="fill:none;stroke:#263238;stroke-width:0.9772;stroke-linecap:round;stroke-linejoin:round;stroke-miterlimit:10;" x1="77.297" y1="114.137" x2="116.062" y2="114.137"/>
		
			<line style="fill:none;stroke:#263238;stroke-width:0.9772;stroke-linecap:round;stroke-linejoin:round;stroke-miterlimit:10;" x1="77.297" y1="122.443" x2="116.062" y2="122.443"/>
		
			<line style="fill:none;stroke:#263238;stroke-width:0.9772;stroke-linecap:round;stroke-linejoin:round;stroke-miterlimit:10;" x1="77.297" y1="130.75" x2="116.062" y2="130.75"/>
		
			<line style="fill:none;stroke:#263238;stroke-width:0.9772;stroke-linecap:round;stroke-linejoin:round;stroke-miterlimit:10;" x1="77.297" y1="139.057" x2="116.062" y2="139.057"/>
		
			<line style="fill:none;stroke:#263238;stroke-width:0.9772;stroke-linecap:round;stroke-linejoin:round;stroke-miterlimit:10;" x1="77.297" y1="147.364" x2="116.062" y2="147.364"/>
		
			<line style="fill:none;stroke:#263238;stroke-width:0.9772;stroke-linecap:round;stroke-linejoin:round;stroke-miterlimit:10;" x1="77.297" y1="155.671" x2="116.062" y2="155.671"/>
		
			<line style="fill:none;stroke:#263238;stroke-width:0.9772;stroke-linecap:round;stroke-linejoin:round;stroke-miterlimit:10;" x1="77.297" y1="163.978" x2="116.062" y2="163.978"/>
		
			<line style="fill:none;stroke:#263238;stroke-width:0.9772;stroke-linecap:round;stroke-linejoin:round;stroke-miterlimit:10;" x1="138.214" y1="97.523" x2="176.98" y2="97.523"/>
		
			<line style="fill:none;stroke:#263238;stroke-width:0.9772;stroke-linecap:round;stroke-linejoin:round;stroke-miterlimit:10;" x1="138.214" y1="105.83" x2="176.98" y2="105.83"/>
		
			<line style="fill:none;stroke:#263238;stroke-width:0.9772;stroke-linecap:round;stroke-linejoin:round;stroke-miterlimit:10;" x1="138.214" y1="114.137" x2="176.98" y2="114.137"/>
		
			<line style="fill:none;stroke:#263238;stroke-width:0.9772;stroke-linecap:round;stroke-linejoin:round;stroke-miterlimit:10;" x1="138.214" y1="122.443" x2="176.98" y2="122.443"/>
		
			<line style="fill:none;stroke:#263238;stroke-width:0.9772;stroke-linecap:round;stroke-linejoin:round;stroke-miterlimit:10;" x1="138.214" y1="130.75" x2="176.98" y2="130.75"/>
		
			<line style="fill:none;stroke:#263238;stroke-width:0.9772;stroke-linecap:round;stroke-linejoin:round;stroke-miterlimit:10;" x1="138.214" y1="139.057" x2="176.98" y2="139.057"/>
		
			<line style="fill:none;stroke:#263238;stroke-width:0.9772;stroke-linecap:round;stroke-linejoin:round;stroke-miterlimit:10;" x1="138.214" y1="147.364" x2="176.98" y2="147.364"/>
		
			<line style="fill:none;stroke:#263238;stroke-width:0.9772;stroke-linecap:round;stroke-linejoin:round;stroke-miterlimit:10;" x1="138.214" y1="155.671" x2="176.98" y2="155.671"/>
		
			<line style="fill:none;stroke:#263238;stroke-width:0.9772;stroke-linecap:round;stroke-linejoin:round;stroke-miterlimit:10;" x1="138.214" y1="163.978" x2="176.98" y2="163.978"/>
		
			<line style="fill:none;stroke:#263238;stroke-width:0.9772;stroke-linecap:round;stroke-linejoin:round;stroke-miterlimit:10;" x1="205.777" y1="97.523" x2="244.543" y2="97.523"/>
		
			<line style="fill:none;stroke:#263238;stroke-width:0.9772;stroke-linecap:round;stroke-linejoin:round;stroke-miterlimit:10;" x1="205.777" y1="105.83" x2="244.543" y2="105.83"/>
		
			<line style="fill:none;stroke:#263238;stroke-width:0.9772;stroke-linecap:round;stroke-linejoin:round;stroke-miterlimit:10;" x1="205.777" y1="114.137" x2="244.543" y2="114.137"/>
		
			<line style="fill:none;stroke:#263238;stroke-width:0.9772;stroke-linecap:round;stroke-linejoin:round;stroke-miterlimit:10;" x1="205.777" y1="122.443" x2="244.543" y2="122.443"/>
		
			<line style="fill:none;stroke:#263238;stroke-width:0.9772;stroke-linecap:round;stroke-linejoin:round;stroke-miterlimit:10;" x1="205.777" y1="130.75" x2="244.543" y2="130.75"/>
		
			<line style="fill:none;stroke:#263238;stroke-width:0.9772;stroke-linecap:round;stroke-linejoin:round;stroke-miterlimit:10;" x1="205.777" y1="139.057" x2="244.543" y2="139.057"/>
		
			<line style="fill:none;stroke:#263238;stroke-width:0.9772;stroke-linecap:round;stroke-linejoin:round;stroke-miterlimit:10;" x1="205.777" y1="147.364" x2="244.543" y2="147.364"/>
		
			<line style="fill:none;stroke:#263238;stroke-width:0.9772;stroke-linecap:round;stroke-linejoin:round;stroke-miterlimit:10;" x1="205.777" y1="155.671" x2="244.543" y2="155.671"/>
		
			<line style="fill:none;stroke:#263238;stroke-width:0.9772;stroke-linecap:round;stroke-linejoin:round;stroke-miterlimit:10;" x1="205.777" y1="163.978" x2="244.543" y2="163.978"/>
		
			<line style="fill:none;stroke:#263238;stroke-width:0.9772;stroke-linecap:round;stroke-linejoin:round;stroke-miterlimit:10;" x1="266.694" y1="97.523" x2="305.46" y2="97.523"/>
		
			<line style="fill:none;stroke:#263238;stroke-width:0.9772;stroke-linecap:round;stroke-linejoin:round;stroke-miterlimit:10;" x1="266.694" y1="105.83" x2="305.46" y2="105.83"/>
		
			<line style="fill:none;stroke:#263238;stroke-width:0.9772;stroke-linecap:round;stroke-linejoin:round;stroke-miterlimit:10;" x1="266.694" y1="114.137" x2="305.46" y2="114.137"/>
		
			<line style="fill:none;stroke:#263238;stroke-width:0.9772;stroke-linecap:round;stroke-linejoin:round;stroke-miterlimit:10;" x1="266.694" y1="122.443" x2="305.46" y2="122.443"/>
		
			<line style="fill:none;stroke:#263238;stroke-width:0.9772;stroke-linecap:round;stroke-linejoin:round;stroke-miterlimit:10;" x1="266.694" y1="130.75" x2="305.46" y2="130.75"/>
		
			<line style="fill:none;stroke:#263238;stroke-width:0.9772;stroke-linecap:round;stroke-linejoin:round;stroke-miterlimit:10;" x1="266.694" y1="139.057" x2="305.46" y2="139.057"/>
		
			<line style="fill:none;stroke:#263238;stroke-width:0.9772;stroke-linecap:round;stroke-linejoin:round;stroke-miterlimit:10;" x1="266.694" y1="147.364" x2="305.46" y2="147.364"/>
		
			<line style="fill:none;stroke:#263238;stroke-width:0.9772;stroke-linecap:round;stroke-linejoin:round;stroke-miterlimit:10;" x1="266.694" y1="155.671" x2="305.46" y2="155.671"/>
		
			<line style="fill:none;stroke:#263238;stroke-width:0.9772;stroke-linecap:round;stroke-linejoin:round;stroke-miterlimit:10;" x1="266.694" y1="163.978" x2="305.46" y2="163.978"/>
		
			<line style="fill:none;stroke:#263238;stroke-width:0.9772;stroke-linecap:round;stroke-linejoin:round;stroke-miterlimit:10;" x1="334.257" y1="97.523" x2="373.023" y2="97.523"/>
		
			<line style="fill:none;stroke:#263238;stroke-width:0.9772;stroke-linecap:round;stroke-linejoin:round;stroke-miterlimit:10;" x1="334.257" y1="105.83" x2="373.023" y2="105.83"/>
		
			<line style="fill:none;stroke:#263238;stroke-width:0.9772;stroke-linecap:round;stroke-linejoin:round;stroke-miterlimit:10;" x1="334.257" y1="114.137" x2="373.023" y2="114.137"/>
		
			<line style="fill:none;stroke:#263238;stroke-width:0.9772;stroke-linecap:round;stroke-linejoin:round;stroke-miterlimit:10;" x1="334.257" y1="122.443" x2="373.023" y2="122.443"/>
		
			<line style="fill:none;stroke:#263238;stroke-width:0.9772;stroke-linecap:round;stroke-linejoin:round;stroke-miterlimit:10;" x1="334.257" y1="130.75" x2="373.023" y2="130.75"/>
		
			<line style="fill:none;stroke:#263238;stroke-width:0.9772;stroke-linecap:round;stroke-linejoin:round;stroke-miterlimit:10;" x1="334.257" y1="139.057" x2="373.023" y2="139.057"/>
		
			<line style="fill:none;stroke:#263238;stroke-width:0.9772;stroke-linecap:round;stroke-linejoin:round;stroke-miterlimit:10;" x1="334.257" y1="147.364" x2="373.023" y2="147.364"/>
		
			<line style="fill:none;stroke:#263238;stroke-width:0.9772;stroke-linecap:round;stroke-linejoin:round;stroke-miterlimit:10;" x1="334.257" y1="155.671" x2="373.023" y2="155.671"/>
		
			<line style="fill:none;stroke:#263238;stroke-width:0.9772;stroke-linecap:round;stroke-linejoin:round;stroke-miterlimit:10;" x1="334.257" y1="163.978" x2="373.023" y2="163.978"/>
		
			<line style="fill:none;stroke:#263238;stroke-width:0.9772;stroke-linecap:round;stroke-linejoin:round;stroke-miterlimit:10;" x1="395.174" y1="97.523" x2="433.94" y2="97.523"/>
		
			<line style="fill:none;stroke:#263238;stroke-width:0.9772;stroke-linecap:round;stroke-linejoin:round;stroke-miterlimit:10;" x1="395.174" y1="105.83" x2="433.94" y2="105.83"/>
		
			<line style="fill:none;stroke:#263238;stroke-width:0.9772;stroke-linecap:round;stroke-linejoin:round;stroke-miterlimit:10;" x1="395.174" y1="114.137" x2="433.94" y2="114.137"/>
		
			<line style="fill:none;stroke:#263238;stroke-width:0.9772;stroke-linecap:round;stroke-linejoin:round;stroke-miterlimit:10;" x1="395.174" y1="122.443" x2="433.94" y2="122.443"/>
		
			<line style="fill:none;stroke:#263238;stroke-width:0.9772;stroke-linecap:round;stroke-linejoin:round;stroke-miterlimit:10;" x1="395.174" y1="130.75" x2="433.94" y2="130.75"/>
		
			<line style="fill:none;stroke:#263238;stroke-width:0.9772;stroke-linecap:round;stroke-linejoin:round;stroke-miterlimit:10;" x1="395.174" y1="139.057" x2="433.94" y2="139.057"/>
		
			<line style="fill:none;stroke:#263238;stroke-width:0.9772;stroke-linecap:round;stroke-linejoin:round;stroke-miterlimit:10;" x1="395.174" y1="147.364" x2="433.94" y2="147.364"/>
		
			<line style="fill:none;stroke:#263238;stroke-width:0.9772;stroke-linecap:round;stroke-linejoin:round;stroke-miterlimit:10;" x1="395.174" y1="155.671" x2="433.94" y2="155.671"/>
		
			<line style="fill:none;stroke:#263238;stroke-width:0.9772;stroke-linecap:round;stroke-linejoin:round;stroke-miterlimit:10;" x1="395.174" y1="163.978" x2="433.94" y2="163.978"/>
	</g>
</g>
<g id="Device">
	<g id="XMLID_96_">
		<g id="XMLID_127_">
			<g id="XMLID_134_">
				
					<polygon id="XMLID_136_" style="fill:#C6FF00;stroke:#263238;stroke-width:0.9772;stroke-linecap:round;stroke-linejoin:round;stroke-miterlimit:10;" points="
					263.406,46.967 245.938,46.967 249.431,28.82 259.912,28.82 				"/>
				
					<polygon id="XMLID_135_" style="fill:#263238;stroke:#263238;stroke-width:0.9772;stroke-linecap:round;stroke-linejoin:round;stroke-miterlimit:10;" points="
					245.938,46.967 263.406,46.967 262.357,41.52 246.986,41.52 				"/>
			</g>
			
				<rect id="XMLID_133_" x="253.018" y="84.078" style="fill:#FFFFFF;stroke:#263238;stroke-width:0.9772;stroke-linecap:round;stroke-linejoin:round;stroke-miterlimit:10;" width="4.336" height="159.073"/>
			
				<rect id="XMLID_132_" x="241.618" y="46.169" style="fill:#FFFFFF;stroke:#263238;stroke-width:0.9772;stroke-linecap:round;stroke-linejoin:round;stroke-miterlimit:10;" width="26.107" height="50.068"/>
			
				<rect id="XMLID_131_" x="241.618" y="89.442" style="fill:#263238;stroke:#263238;stroke-width:0.9772;stroke-linecap:round;stroke-linejoin:round;stroke-miterlimit:10;" width="26.107" height="6.795"/>
			<g id="XMLID_128_">
				<path id="XMLID_129_" style="fill:#263238;" d="M246.605,81.702c0-1.435,0.225-2.761,0.675-3.977
					c0.45-1.216,1.003-2.311,1.66-3.284c0.657-0.973,1.52-2.116,2.591-3.43c1.095-1.362,1.964-2.518,2.609-3.466
					c0.644-0.949,1.192-2.037,1.642-3.266c0.45-1.228,0.675-2.56,0.675-3.996c0-0.851-0.122-1.514-0.365-1.988
					c-0.243-0.475-0.681-0.712-1.314-0.712c-1.046,0-1.569,0.937-1.569,2.81v3.831h-6.604l-0.073-1.934
					c0-2.383,0.243-4.342,0.729-5.874c0.487-1.533,1.338-2.7,2.554-3.503c1.216-0.803,2.894-1.204,5.035-1.204
					c2.627,0,4.658,0.736,6.093,2.207c1.435,1.472,2.153,3.557,2.153,6.257c0,1.728-0.237,3.291-0.711,4.689
					c-0.474,1.399-1.058,2.621-1.752,3.667c-0.693,1.046-1.612,2.275-2.755,3.685c-0.827,0.997-1.514,1.885-2.062,2.663
					c-0.547,0.779-1.04,1.582-1.477,2.408h8.538v5.911h-16.273V81.702z"/>
			</g>
		</g>
		
			<rect id="XMLID_126_" x="293.474" y="294.362" style="fill:#263238;stroke:#263238;stroke-width:0.9772;stroke-linecap:round;stroke-linejoin:round;stroke-miterlimit:10;" width="82.969" height="161.647"/>
		
			<path id="XMLID_123_" style="fill:#C6FF00;stroke:#263238;stroke-width:0.9772;stroke-linecap:round;stroke-linejoin:round;stroke-miterlimit:10;" d="
			M364.094,359.514l-6.527-43.516h-7.282l-2.944-5.021c-1.293-2.206-3.659-3.562-6.216-3.562H331.08
			c-2.327,0-4.511,1.124-5.864,3.018l-3.975,5.566h-8.377l-5.449,42.383c-0.62,4.819,1.142,9.638,4.724,12.921l2.871,2.632h43.63
			l2.242-2.74C363.553,367.929,364.72,363.686,364.094,359.514z M329.875,311.707h11.802l2.272,4.292h-16.332L329.875,311.707z"/>
		
			<rect id="XMLID_122_" x="293.474" y="294.362" style="fill:#787878;stroke:#263238;stroke-width:0.9772;stroke-linecap:round;stroke-linejoin:round;stroke-miterlimit:10;" width="82.969" height="5.581"/>
		
			<rect id="XMLID_121_" x="293.474" y="373.542" style="fill:#FFFFFF;stroke:#263238;stroke-width:0.9772;stroke-linecap:round;stroke-linejoin:round;stroke-miterlimit:10;" width="82.969" height="82.468"/>
		
			<rect id="XMLID_120_" x="293.474" y="373.542" style="fill:#787878;stroke:#263238;stroke-width:0.9772;stroke-linecap:round;stroke-linejoin:round;stroke-miterlimit:10;" width="82.969" height="9.138"/>
		<g id="XMLID_117_">
			
				<polygon id="XMLID_119_" style="fill:#787878;stroke:#263238;stroke-width:0.9772;stroke-linecap:round;stroke-linejoin:round;stroke-miterlimit:10;" points="
				127.893,343.715 178.318,363.026 178.318,343.715 			"/>
			
				<rect id="XMLID_118_" x="97.852" y="341.211" style="fill:#FFFFFF;stroke:#263238;stroke-width:0.9772;stroke-linecap:round;stroke-linejoin:round;stroke-miterlimit:10;" width="83.685" height="4.292"/>
		</g>
		
			<rect id="XMLID_116_" x="293.832" y="213.896" style="fill:#263238;stroke:#263238;stroke-width:0.9772;stroke-linecap:round;stroke-linejoin:round;stroke-miterlimit:10;" width="4.649" height="12.517"/>
		
			<rect id="XMLID_115_" x="175.457" y="234.567" style="fill:#263238;stroke:#263238;stroke-width:0.9772;stroke-linecap:round;stroke-linejoin:round;stroke-miterlimit:10;" width="119.09" height="62.656"/>
		
			<rect id="XMLID_114_" x="251.23" y="234.567" style="fill:#FFFFFF;stroke:#263238;stroke-width:0.9772;stroke-linecap:round;stroke-linejoin:round;stroke-miterlimit:10;" width="43.317" height="62.656"/>
		
			<rect id="XMLID_113_" x="260.538" y="286.532" style="fill:#787878;stroke:#263238;stroke-width:0.9772;stroke-linecap:round;stroke-linejoin:round;stroke-miterlimit:10;" width="24.701" height="10.691"/>
		
			<rect id="XMLID_112_" x="175.457" y="293.933" style="fill:#FFFFFF;stroke:#263238;stroke-width:0.9772;stroke-linecap:round;stroke-linejoin:round;stroke-miterlimit:10;" width="119.09" height="162.076"/>
		
			<rect id="XMLID_111_" x="175.457" y="293.933" style="fill:#787878;stroke:#263238;stroke-width:0.9772;stroke-linecap:round;stroke-linejoin:round;stroke-miterlimit:10;" width="119.09" height="62.656"/>
		
			<rect id="XMLID_110_" x="175.726" y="174.199" style="fill:#263238;stroke:#263238;stroke-width:0.9772;stroke-linecap:round;stroke-linejoin:round;stroke-miterlimit:10;" width="77.247" height="60.368"/>
		<g>
			
				<rect id="XMLID_109_" x="179.34" y="179.359" style="fill:#C6FF00;stroke:#263238;stroke-width:0.9772;stroke-linecap:round;stroke-linejoin:round;stroke-miterlimit:10;" width="70.019" height="51.403"/>
			<g>
				
					<line style="fill:none;stroke:#263238;stroke-width:0.9772;stroke-linecap:round;stroke-linejoin:round;stroke-miterlimit:10;" x1="185.045" y1="185.802" x2="203.767" y2="185.802"/>
				
					<line style="fill:none;stroke:#263238;stroke-width:0.9772;stroke-linecap:round;stroke-linejoin:round;stroke-miterlimit:10;" x1="185.045" y1="189.887" x2="203.767" y2="189.887"/>
				
					<line style="fill:none;stroke:#263238;stroke-width:0.9772;stroke-linecap:round;stroke-linejoin:round;stroke-miterlimit:10;" x1="185.045" y1="193.971" x2="203.767" y2="193.971"/>
				
					<line style="fill:none;stroke:#263238;stroke-width:0.9772;stroke-linecap:round;stroke-linejoin:round;stroke-miterlimit:10;" x1="185.045" y1="198.056" x2="203.767" y2="198.056"/>
			</g>
			<g>
				
					<line style="fill:none;stroke:#263238;stroke-width:0.9772;stroke-linecap:round;stroke-linejoin:round;stroke-miterlimit:10;" x1="185.045" y1="206.907" x2="203.767" y2="206.907"/>
				
					<line style="fill:none;stroke:#263238;stroke-width:0.9772;stroke-linecap:round;stroke-linejoin:round;stroke-miterlimit:10;" x1="185.045" y1="210.992" x2="203.767" y2="210.992"/>
				
					<line style="fill:none;stroke:#263238;stroke-width:0.9772;stroke-linecap:round;stroke-linejoin:round;stroke-miterlimit:10;" x1="185.045" y1="215.077" x2="203.767" y2="215.077"/>
				
					<line style="fill:none;stroke:#263238;stroke-width:0.9772;stroke-linecap:round;stroke-linejoin:round;stroke-miterlimit:10;" x1="185.045" y1="219.161" x2="203.767" y2="219.161"/>
			</g>
			<g>
				
					<line style="fill:none;stroke:#263238;stroke-width:0.9772;stroke-linecap:round;stroke-linejoin:round;stroke-miterlimit:10;" x1="218.745" y1="185.802" x2="237.467" y2="185.802"/>
				
					<line style="fill:none;stroke:#263238;stroke-width:0.9772;stroke-linecap:round;stroke-linejoin:round;stroke-miterlimit:10;" x1="218.745" y1="189.887" x2="237.467" y2="189.887"/>
				
					<line style="fill:none;stroke:#263238;stroke-width:0.9772;stroke-linecap:round;stroke-linejoin:round;stroke-miterlimit:10;" x1="218.745" y1="193.971" x2="237.467" y2="193.971"/>
				
					<line style="fill:none;stroke:#263238;stroke-width:0.9772;stroke-linecap:round;stroke-linejoin:round;stroke-miterlimit:10;" x1="218.745" y1="198.056" x2="237.467" y2="198.056"/>
			</g>
		</g>
		
			<path id="XMLID_108_" style="fill:#787878;stroke:#263238;stroke-width:0.9772;stroke-linecap:round;stroke-linejoin:round;stroke-miterlimit:10;" d="
			M252.623,237.499h-76.547c-1.28,0-2.317-1.037-2.317-2.317v-2.161c0-1.28,1.037-2.317,2.317-2.317h76.547
			c1.28,0,2.317,1.037,2.317,2.317v2.161C254.94,236.462,253.903,237.499,252.623,237.499z"/>
		
			<path id="XMLID_107_" style="fill:#263238;stroke:#263238;stroke-width:0.9772;stroke-linecap:round;stroke-linejoin:round;stroke-miterlimit:10;" d="
			M289.089,235.354h-29.742c-1.988,0-3.684-1.433-4.011-3.394c-0.635-3.8-1.558-9.762-1.558-12.342
			c0-3.022,0.981-10.129,1.616-14.418c0.295-1.993,2.007-3.463,4.023-3.463h29.568c1.983,0,3.676,1.422,4.009,3.377
			c0.74,4.356,1.912,11.743,1.912,14.863c0,2.531-1.085,8.396-1.827,12.107C292.698,233.986,291.03,235.354,289.089,235.354z"/>
		
			<rect id="XMLID_106_" x="259.5" y="207.629" style="fill:#C6FF00;stroke:#263238;stroke-width:0.9772;stroke-linecap:round;stroke-linejoin:round;stroke-miterlimit:10;" width="29.683" height="21.833"/>
		
			<path id="XMLID_105_" style="fill:#263238;stroke:#263238;stroke-width:0.9772;stroke-linecap:round;stroke-linejoin:round;stroke-miterlimit:10;" d="
			M289.137,197.803h-30.665c-1.012,0-1.833,0.821-1.833,1.833v0.267c0,1.013,0.821,1.833,1.833,1.833h30.665
			c1.012,0,1.833-0.821,1.833-1.833v-0.267C290.971,198.624,290.15,197.803,289.137,197.803z"/>
		
			<rect id="XMLID_104_" x="256.996" y="301.157" style="fill:#263238;stroke:#263238;stroke-width:0.9772;stroke-linecap:round;stroke-linejoin:round;stroke-miterlimit:10;" width="32.186" height="31.829"/>
		
			<rect id="XMLID_103_" x="261.288" y="304.733" style="fill:#FFFFFF;stroke:#263238;stroke-width:0.9772;stroke-linecap:round;stroke-linejoin:round;stroke-miterlimit:10;" width="24.319" height="4.649"/>
		
			<path id="XMLID_102_" style="fill:#263238;stroke:#263238;stroke-width:0.9772;stroke-linecap:round;stroke-linejoin:round;stroke-miterlimit:10;" d="
			M175.457,356.589c0,0,46.492,11.802,119.09,0H175.457z"/>
		
			<rect id="XMLID_101_" x="260.93" y="243.221" style="fill:#263238;stroke:#263238;stroke-width:0.9772;stroke-linecap:round;stroke-linejoin:round;stroke-miterlimit:10;" width="25.749" height="4.292"/>
		
			<rect id="XMLID_100_" x="303.488" y="410.071" style="fill:#FFFFFF;stroke:#263238;stroke-width:0.9772;stroke-linecap:round;stroke-linejoin:round;stroke-miterlimit:10;" width="64.015" height="38.428"/>
		
			<rect id="XMLID_99_" x="358.205" y="427.042" style="fill:#263238;stroke:#263238;stroke-width:0.9772;stroke-linecap:round;stroke-linejoin:round;stroke-miterlimit:10;" width="6.437" height="5.364"/>
		
			<path id="XMLID_98_" style="fill:#263238;stroke:#263238;stroke-width:0.9772;stroke-linecap:round;stroke-linejoin:round;stroke-miterlimit:10;" d="
			M223.993,356.589c-1.787-7.781-8.741-13.59-17.064-13.59c-8.323,0-15.277,5.809-17.064,13.59H223.993z"/>
		
			<path id="XMLID_97_" style="fill:#263238;stroke:#263238;stroke-width:0.9772;stroke-linecap:round;stroke-linejoin:round;stroke-miterlimit:10;" d="
			M189.864,294.004c1.788,7.781,8.741,13.59,17.064,13.59c8.323,0,15.277-5.809,17.064-13.59H189.864z"/>
	</g>
</g>
<g id="Character_1_">
	<g id="XMLID_27_">
		
			<path id="XMLID_95_" style="fill:#636363;stroke:#263238;stroke-width:0.9772;stroke-linecap:round;stroke-linejoin:round;stroke-miterlimit:10;" d="
			M115.529,439.033v16.361h3.487v-10.192c0,0,1.878-1.073,3.755,1.341c1.877,2.414,5.365,8.047,7.51,8.851
			c2.146,0.805,19.806,0.672,22.065,0.425c1.867-0.203,1.27-2.035-1.412-3.108c-2.682-1.073-11.533-6.437-12.875-8.851
			c-1.341-2.414-2.951-6.169-2.951-6.169L115.529,439.033z"/>
		
			<path id="XMLID_94_" style="fill:#636363;stroke:#263238;stroke-width:0.9772;stroke-linecap:round;stroke-linejoin:round;stroke-miterlimit:10;" d="
			M99.614,439.033v16.361h3.487v-10.192c0,0,1.878-1.073,3.755,1.341c1.878,2.414,5.364,8.047,7.51,8.851
			c2.146,0.805,19.806,0.672,22.065,0.425c1.867-0.203,1.27-2.035-1.412-3.108c-2.682-1.073-11.533-6.437-12.875-8.851
			c-1.341-2.414-2.95-6.169-2.95-6.169L99.614,439.033z"/>
		<g id="XMLID_89_">
			
				<path id="XMLID_93_" style="fill:#FFFFFF;stroke:#263238;stroke-width:0.9772;stroke-linecap:round;stroke-linejoin:round;stroke-miterlimit:10;" d="
				M155.538,175.641c0,0-1.207,5.499-2.012,7.51c-0.805,2.012-0.402,5.633,0.134,6.705c0.536,1.073-0.134,3.755-1.475,4.56
				c-1.341,0.805-3.219,0.939-3.219,0.939s-5.499,7.242-7.778,8.851c-2.28,1.609-4.56-0.671-6.303-2.414
				c-1.743-1.743-7.778-8.985-6.035-13.009c1.743-4.023,12.204-21.055,14.618-27.627c2.414-6.571,10.863-4.157,13.277-0.536
				S155.538,175.641,155.538,175.641z"/>
			<path id="XMLID_92_" style="fill:#263238;" d="M151.496,184.016c-0.486,0.916-1.198,1.49-1.591,1.281
				c-0.393-0.208-0.317-1.12,0.169-2.036c0.486-0.916,1.198-1.49,1.591-1.281C152.058,182.188,151.982,183.1,151.496,184.016z"/>
			
				<path id="XMLID_91_" style="fill:none;stroke:#263238;stroke-width:0.9772;stroke-linecap:round;stroke-linejoin:round;stroke-miterlimit:10;" d="
				M149.771,179.53c0,0,2.816-1.743,3.219,0.536"/>
			
				<path id="XMLID_90_" style="fill:none;stroke:#263238;stroke-width:0.9772;stroke-linecap:round;stroke-linejoin:round;stroke-miterlimit:10;" d="
				M142.664,194.014c0,0,0.402,2.146,2.548,2.95"/>
		</g>
		
			<path id="XMLID_88_" style="fill:#FFFFFF;stroke:#263238;stroke-width:0.9772;stroke-linecap:round;stroke-linejoin:round;stroke-miterlimit:10;" d="
			M154.184,254.798c0,0,21.47-4.592,25.762-4.726c4.292-0.134,21.726,2.95,21.726,2.95l-9.522,6.705c0,0-6.437,0.536-9.388-0.134
			c-2.95-0.671-6.974-2.012-6.974-2.012l-17.178,7.682L154.184,254.798z"/>
		<g id="XMLID_82_">
			
				<polygon id="XMLID_86_" style="fill:#FFFFFF;stroke:#263238;stroke-width:0.9772;stroke-linecap:round;stroke-linejoin:round;stroke-miterlimit:10;" points="
				219.24,285.746 176.593,278.235 177.13,267.641 218.838,274.614 			"/>
			<g id="XMLID_83_">
				
					<polygon id="XMLID_85_" style="fill:#FFFFFF;stroke:#263238;stroke-width:0.9772;stroke-linecap:round;stroke-linejoin:round;stroke-miterlimit:10;" points="
					246.197,256.241 245.928,267.238 219.24,285.746 218.838,274.614 				"/>
				
					<polygon id="XMLID_84_" style="fill:#FFFFFF;stroke:#263238;stroke-width:0.9772;stroke-linecap:round;stroke-linejoin:round;stroke-miterlimit:10;" points="
					202.343,250.072 177.13,267.641 218.838,274.614 246.197,256.241 				"/>
			</g>
		</g>
		<g id="XMLID_35_">
			
				<path id="XMLID_81_" style="fill:#263238;stroke:#263238;stroke-width:0.9772;stroke-linecap:round;stroke-linejoin:round;stroke-miterlimit:10;" d="
				M148.43,376.27c0,0-3.755,42.111-3.755,50.962s0,12.338,0,12.338h-15.02c0,0-0.805-4.56,2.95-23.067
				C136.361,397.996,148.43,376.27,148.43,376.27z"/>
			
				<path id="XMLID_39_" style="fill:#263238;stroke:#263238;stroke-width:0.9772;stroke-linecap:round;stroke-linejoin:round;stroke-miterlimit:10;" d="
				M90.227,295.535c0,0-1.878,15.289,2.414,25.481c4.291,10.192,11.802,29.236,11.802,35.941c0,6.706-5.364,32.723-6.705,51.767
				c-1.341,19.044,0.805,32.723,0.805,32.723l32.455,0.268c0,0,5.633-33.796,15.289-54.449
				c9.656-20.653,11.802-41.306,11.802-61.959c0-20.653-0.268-31.382-0.268-31.382s-21.189-11.534-34.6-10.192
				S90.227,295.535,90.227,295.535z"/>
			
				<path id="XMLID_38_" style="fill:none;stroke:#707070;stroke-width:0.9772;stroke-linecap:round;stroke-linejoin:round;stroke-miterlimit:10;" d="
				M101.492,434.474c0,0,6.437-20.385,23.067-38.624c16.63-18.239,21.994-29.504,23.067-38.087"/>
			
				<path id="XMLID_37_" style="fill:none;stroke:#707070;stroke-width:0.9772;stroke-linecap:round;stroke-linejoin:round;stroke-miterlimit:10;" d="
				M129.655,378.147c0,0-8.047,8.583-17.166,22.53c-9.119,13.947-9.119,19.044-9.119,19.044"/>
			
				<path id="XMLID_36_" style="fill:none;stroke:#707070;stroke-width:0.9772;stroke-linecap:round;stroke-linejoin:round;stroke-miterlimit:10;" d="
				M104.596,353.27c0,0,1.455-12.048-1.764-27.783"/>
		</g>
		<g>
			
				<path id="XMLID_34_" style="fill:#C6FF00;stroke:#263238;stroke-width:0.9772;stroke-linecap:round;stroke-linejoin:round;stroke-miterlimit:10;" d="
				M147.492,217.886c0,0-10.863-12.338-21.994-16.63c-11.131-4.292-24.542,0-28.565,7.51c-4.023,7.51-7.644,22.262-5.901,30.577
				c1.743,8.315,10.192,20.921,8.583,29.102c-1.609,8.181-12.472,25.213-12.338,26.688c0.134,1.475,2.95,13.009,20.117,8.047
				c17.166-4.962,21.055-14.484,33.527-10.461c12.472,4.023,17.837,10.595,21.994,11.802c4.157,1.207,4.157,1.207,4.157,1.207
				s-7.51-22.396-9.254-33.796c-1.743-11.399-0.671-12.204,1.207-17.032c1.878-4.828,2.951-13.143-0.134-20.653
				C155.806,226.737,147.492,217.886,147.492,217.886z"/>
			
				<path style="fill:none;stroke:#263238;stroke-width:0.9772;stroke-linecap:round;stroke-linejoin:round;stroke-miterlimit:10;" d="
				M111.4,247.62c0,0,7.441,9.731,21.752,12.593"/>
			
				<path style="fill:none;stroke:#263238;stroke-width:0.9772;stroke-linecap:round;stroke-linejoin:round;stroke-miterlimit:10;" d="
				M109.011,261.501c0.219,0.334,0.443,0.668,0.672,1.001"/>
			
				<path style="fill:none;stroke:#263238;stroke-width:0.9772;stroke-linecap:round;stroke-linejoin:round;stroke-miterlimit:10;" d="
				M99.952,224.15c0,0-2.427,16.99,7.023,33.983"/>
		</g>
		<g>
			<defs>
				<path id="XMLID_33_" d="M152.722,162.766c0,0-0.402,5.499-6.169,13.277c-5.767,7.778-11.936,15.691-11.936,15.691
					s2.28,12.874,4.962,15.825c2.682,2.95,3.353,3.353,3.353,3.353s-9.119,0-12.204,0s-6.437-6.706-6.437-6.706l0.671,12.606
					l-7.376-0.671l-0.134-9.254l-1.878,9.79l-10.192-1.609l0.134-4.828l-2.951,4.962c0,0-7.51-2.682-9.656-4.023
					c-2.146-1.341-2.146-1.341-2.146-1.341s9.119-11.802,9.119-23.603c0-11.802,2.548-30.711,12.606-38.087
					c10.058-7.376,19.044-7.108,22.128-6.303c3.085,0.805,21.994,10.729,25.347,12.606c3.353,1.877,4.292,13.277,1.073,16.764
					c-3.219,3.487-5.499,4.426-5.499,4.426S155.404,165.315,152.722,162.766z"/>
			</defs>
			<use xlink:href="#XMLID_33_"  style="overflow:visible;fill:#263238;"/>
			<clipPath id="XMLID_00000044155273762434694680000015725393317464763796_">
				<use xlink:href="#XMLID_33_"  style="overflow:visible;"/>
			</clipPath>
			
				<path style="clip-path:url(#XMLID_00000044155273762434694680000015725393317464763796_);fill:none;stroke:#707070;stroke-width:0.9772;stroke-linecap:round;stroke-linejoin:round;stroke-miterlimit:10;" d="
				M152.722,162.766c0,0,8.348-0.956,6.282-4.744s-18.939-12.052-26.859-11.708"/>
			
				<path style="clip-path:url(#XMLID_00000044155273762434694680000015725393317464763796_);fill:none;stroke:#707070;stroke-width:0.9772;stroke-linecap:round;stroke-linejoin:round;stroke-miterlimit:10;" d="
				M145.574,150.791c0,0-10.675,4.821-14.807,16.529c-4.132,11.708,1.722,21.006,1.722,21.006"/>
			
				<path style="clip-path:url(#XMLID_00000044155273762434694680000015725393317464763796_);fill:none;stroke:#707070;stroke-width:0.9772;stroke-linecap:round;stroke-linejoin:round;stroke-miterlimit:10;" d="
				M135.933,147.347c0,0-13.085,4.477-21.694,19.972c-8.609,15.496-8.265,44.421-6.543,53.375"/>
			
				<path style="clip-path:url(#XMLID_00000044155273762434694680000015725393317464763796_);fill:none;stroke:#707070;stroke-width:0.9772;stroke-linecap:round;stroke-linejoin:round;stroke-miterlimit:10;" d="
				M123.88,145.97c0,0-18.939,9.298-26.859,38.223"/>
			
				<use xlink:href="#XMLID_33_"  style="overflow:visible;fill:none;stroke:#263238;stroke-width:0.9772;stroke-linecap:round;stroke-linejoin:round;stroke-miterlimit:10;"/>
		</g>
		<g id="XMLID_29_">
			
				<path id="XMLID_32_" style="fill:#FFFFFF;stroke:#263238;stroke-width:0.9772;stroke-linecap:round;stroke-linejoin:round;stroke-miterlimit:10;" d="
				M167.977,267.865c0,0,20.772,5.2,27.482,6.821c6.711,1.622,6.831,1.769,7.378,1.689c0.547-0.079,4.368-4.546,6.064-5.318
				c1.696-0.772,5.178-0.555,7.087-0.767c1.909-0.212,2.789,0.417,1.559,1.91c-1.229,1.493-3.391,1.544-4.139,2.277
				c-0.748,0.733-1.39,1.747-0.376,2.388c1.013,0.642,9.666,8.391,9.865,9.085s-0.535,1.294-1.777,1.573
				c-1.241,0.279-3.415-0.884-4.684-0.339c-1.268,0.546-4.138,0.93-6.473,1.368c-2.336,0.438-9.738-3.68-9.738-3.68
				s-20.698,0.739-29.346,0.943c-8.647,0.204-13.463-1.495-15.088-4.086C154.167,279.139,167.977,267.865,167.977,267.865z"/>
			
				<path id="XMLID_31_" style="fill:#C6FF00;stroke:#263238;stroke-width:0.9772;stroke-linecap:round;stroke-linejoin:round;stroke-miterlimit:10;" d="
				M163.163,264.817c0,0-9.136-17.638-16.742-30.403c-7.606-12.765-14.504-13.867-22.006-11.66
				c-7.502,2.207-7.209,15.312-3.897,25.217c3.312,9.905,26.082,31.347,27.442,32.563c1.36,1.216,10.754,1.626,15.576-3.413
				C168.36,272.082,163.163,264.817,163.163,264.817z"/>
			
				<path id="XMLID_30_" style="fill:#C6FF00;stroke:#263238;stroke-width:0.9772;stroke-linecap:round;stroke-linejoin:round;stroke-miterlimit:10;" d="
				M161.804,262.253c0,0-2.784,7.537-7.725,11.081c-4.941,3.544-9.29,2.566-9.613,4.42c-0.322,1.855,3.543,6.289,8.039,7.148
				c4.496,0.859,13.094-2.855,15.69-9.872c2.596-7.016-0.524-9.488-2.311-10.478C164.098,263.564,163.66,261.228,161.804,262.253z"
				/>
		</g>
		
			<path id="XMLID_28_" style="fill:#FFFFFF;stroke:#263238;stroke-width:0.9772;stroke-linecap:round;stroke-linejoin:round;stroke-miterlimit:10;" d="
			M185.042,253.827c0,0,4.962,1.878,9.254,2.414c4.292,0.536,5.767,0.134,5.23,1.475c-0.536,1.341-0.805,2.414-4.56,2.012
			c-3.755-0.402-6.974-1.341-8.449-1.073c-1.475,0.268-4.157,0.805-7.242,0.671c-3.085-0.134-4.023-2.28-4.023-2.28"/>
	</g>
</g>
<g id="Plants_1_">
	<g>
		<g>
			<g>
				<path style="fill:#C6FF00;" d="M404.798,421.674c0,0-25.886-45.463-19.912-57.022c5.974-11.559,21.24,9.247,21.24,9.247
					s-13.275-42.381-5.974-60.875c7.301-18.494,19.912,0,20.576,13.1c0.664,13.1-2.655,35.446-2.655,35.446
					s5.31-46.234,17.921-32.364c12.611,13.87-15.93,60.104-15.93,60.104s19.249-10.788,18.585,3.082
					c-0.664,13.87-23.231,26.199-23.231,26.199"/>
				<path style="fill:none;stroke:#263238;stroke-width:0.9772;stroke-miterlimit:10;" d="M405.019,413.198
					c0,0-23.956-22.346-12.285-32.364c11.671-10.017,17.813,10.788,17.813,10.788s-12.899-63.957,7.985-66.269
					c20.884-2.312,5.528,55.481,5.528,55.481s17.813-24.658,16.585-4.623c-1.228,20.035-27.641,36.987-27.641,36.987"/>
			</g>
			
				<line style="fill:none;stroke:#263238;stroke-width:0.9772;stroke-miterlimit:10;" x1="416.785" y1="409.13" x2="400.594" y2="391.591"/>
			
				<line style="fill:none;stroke:#263238;stroke-width:0.9772;stroke-miterlimit:10;" x1="413.412" y1="410.48" x2="417.797" y2="359.209"/>
			
				<line style="fill:none;stroke:#263238;stroke-width:0.9772;stroke-miterlimit:10;" x1="412.737" y1="406.769" x2="427.242" y2="387.543"/>
		</g>
		<polygon style="fill:#263238;" points="433.716,403.193 388.936,403.193 393.414,456.009 429.238,456.009 		"/>
	</g>
</g>
<g id="Floor">
	
		<line style="fill:none;stroke:#263238;stroke-width:0.9772;stroke-linecap:round;stroke-linejoin:round;stroke-miterlimit:10;" x1="468" y1="456.009" x2="40" y2="456.009"/>
</g>
</svg>
