<svg xmlns="http://www.w3.org/2000/svg" xmlns:xlink="http://www.w3.org/1999/xlink" viewBox="0 0 181.82 222.75"><defs><style>.cls-1{fill:none;}.cls-2{clip-path:url(#clip-path);}.cls-3{fill:url(#linear-gradient);}.cls-4{fill:url(#linear-gradient-2);}.cls-5{fill:#fff;}</style><clipPath id="clip-path"><path class="cls-1" d="M49.17,183.93v11.62h-13V183.93H29V211.2h7.12V200.12h13V211.2h7.11V183.93Zm23.61,6L77,200.45h-8.5Zm-4.8-6L56.88,211.2h7.24l2.4-6.18H79l2.4,6.18h7.24l-11.1-27.27Zm28.41,4.58h6.88a5.26,5.26,0,1,1,0,10.49H96.39Zm-7.11-4.58V211.2h7.11v-7.63h6.89a19.29,19.29,0,0,0,5.14-.63,11.54,11.54,0,0,0,4-1.9,8.6,8.6,0,0,0,2.56-3.13,9.34,9.34,0,0,0,.9-4.16,9.54,9.54,0,0,0-.89-4.16,8.78,8.78,0,0,0-2.57-3.12,11.4,11.4,0,0,0-4-1.9,19.38,19.38,0,0,0-5.14-.64ZM118,211.2h7.12V183.93H118Zm10.35-27.27V211.2h24v-4.58H135.41v-7h13.25V195H135.41v-6.5h16.88v-4.58Zm32.88,4.58h6.88a5.26,5.26,0,0,1,3.79,1.25,6.87,6.87,0,0,1,0,8,5.26,5.26,0,0,1-3.79,1.25h-6.88Zm-7.11-4.58V211.2h7.11v-7.63h7l5.34,7.63h8.25l-6.36-9.1a9.61,9.61,0,0,0,3.51-2.9,9.07,9.07,0,0,0,1.63-5.45,9.54,9.54,0,0,0-.89-4.16,8.72,8.72,0,0,0-2.55-3.12,11.45,11.45,0,0,0-4-1.9,19.25,19.25,0,0,0-5.13-.64ZM7.44,183.8a11.81,11.81,0,0,0-3.73,1.67A7.18,7.18,0,0,0,1.44,188a6.92,6.92,0,0,0,1.29,8,13.92,13.92,0,0,0,5.52,3l6.9,2.18a12.53,12.53,0,0,1,3.77,1.7,1.93,1.93,0,0,1,.85,1.59,2.28,2.28,0,0,1-1.12,2c-.59.39-1.87.86-4.67.86a18.23,18.23,0,0,1-5.77-.88,13.5,13.5,0,0,1-4.52-2.53L3,203.33,0,206.9l.64.6a13.41,13.41,0,0,0,2.6,1.86,18.38,18.38,0,0,0,3.21,1.39,23.22,23.22,0,0,0,3.63.87,24.94,24.94,0,0,0,3.9.3,24.87,24.87,0,0,0,6-.61,12.69,12.69,0,0,0,4.11-1.71,7,7,0,0,0,2.44-2.72,7.69,7.69,0,0,0,.74-3.33,6.46,6.46,0,0,0-2.19-5,15,15,0,0,0-5.53-3l-6.85-2.17c-.94-.31-1.74-.6-2.36-.86A5.48,5.48,0,0,1,9,191.78a2.08,2.08,0,0,1-.59-.71,2.37,2.37,0,0,1-.17-.95,1.82,1.82,0,0,1,1-1.56,6.45,6.45,0,0,1,3.56-.78,16.64,16.64,0,0,1,5.56.87,13.83,13.83,0,0,1,4.36,2.54l.71.61,3-3.57-.64-.6a13.18,13.18,0,0,0-2.59-1.85,19.28,19.28,0,0,0-3.17-1.4,23.22,23.22,0,0,0-3.52-.87,22.86,22.86,0,0,0-3.69-.3,20.81,20.81,0,0,0-5.27.59"/></clipPath><linearGradient id="linear-gradient" x1="-392.13" y1="-73.75" x2="-391.55" y2="-73.17" gradientTransform="matrix(181.82, 0, 0, -181.82, 71333.39, -13159.36)" gradientUnits="userSpaceOnUse"><stop offset="0" stop-color="#023f9e"/><stop offset="0.03" stop-color="#0444a1"/><stop offset="0.32" stop-color="#146abb"/><stop offset="0.59" stop-color="#2085ce"/><stop offset="0.82" stop-color="#2795d9"/><stop offset="1" stop-color="#299bdd"/></linearGradient><linearGradient id="linear-gradient-2" x1="7.39" y1="169.17" x2="174.42" y2="2.14" gradientTransform="matrix(1, 0, 0, 1, 0, 0)" xlink:href="#linear-gradient"/></defs><title>shapier_logo_final</title><g id="Layer_2" data-name="Layer 2"><g id="Layer_1-2" data-name="Layer 1"><path d="M5.81,222.66l-.36-.94H4.05l-.35.94H3l1.36-3.58h.78l1.37,3.58Zm-1.57-1.5h1l-.51-1.36Z"/><path d="M14.35,221.17h-1.6v1.49h-.68v-3.58h.68v1.47h1.6v-1.47H15v3.58h-.68Z"/><path d="M20.3,222.66l-.35-.94H18.54l-.34.94h-.71l1.36-3.58h.78L21,222.66Zm-1.57-1.5h1l-.51-1.36Z"/><path d="M23.47,219.08h1c.94,0,1.5.47,1.5,1.23a1.3,1.3,0,0,1-1.47,1.28h-.36v1.07h-.67Zm1.82,1.25c0-.41-.3-.63-.76-.63h-.39V221h.39C25,221,25.29,220.74,25.29,220.33Z"/><path d="M28.56,219.08h1c.94,0,1.5.47,1.5,1.23a1.3,1.3,0,0,1-1.47,1.28h-.36v1.07h-.67Zm1.83,1.25c0-.41-.31-.63-.77-.63h-.39V221h.4C30.08,221,30.39,220.74,30.39,220.33Z"/><path d="M33.65,219.08h.67v3.58h-.67Z"/><path d="M37.18,219.08h2.16v.61H37.85v.87h1.36v.57H37.85v.92h1.49v.61H37.18Z"/><path d="M44.66,222.66h-.82l-1.06-1.32h0v1.32h-.68v-3.58h1.08c.85,0,1.36.43,1.36,1.13a1.08,1.08,0,0,1-1,1.09Zm-1.57-1.85c.49,0,.72-.21.72-.56s-.26-.55-.69-.55h-.38v1.11Z"/><path d="M52.44,219.25v.63a1.59,1.59,0,0,0-.87-.27c-.33,0-.59.14-.59.41s.22.36.63.53,1,.44,1,1.1a1.13,1.13,0,0,1-1.27,1.09,1.84,1.84,0,0,1-1.07-.33v-.67a1.57,1.57,0,0,0,1,.4c.36,0,.64-.18.64-.47s-.26-.4-.68-.58-1-.43-1-1,.5-1,1.23-1A1.76,1.76,0,0,1,52.44,219.25Z"/><path d="M56,219.7H54.94v-.62h2.82v.62H56.69v3H56Z"/><path d="M60.29,219.08h2.16v.61H61v.87h1.36v.57H61v.92h1.48v.61H60.29Z"/><path d="M65.18,219.08h1c.94,0,1.5.47,1.5,1.23a1.3,1.3,0,0,1-1.47,1.28h-.36v1.07h-.67ZM67,220.33c0-.41-.31-.63-.77-.63h-.39V221h.4C66.7,221,67,220.74,67,220.33Z"/><path d="M73.4,219.08h2.12v.62H74.07v1h1.37v.59H74.07v1.36H73.4Z"/><path d="M77.93,220.87a1.83,1.83,0,1,1,1.83,1.88A1.81,1.81,0,0,1,77.93,220.87Zm3,0a1.14,1.14,0,1,0-1.14,1.25A1.16,1.16,0,0,0,80.9,220.87Z"/><path d="M86.83,222.66H86L85,221.34h0v1.32h-.68v-3.58h1.08c.85,0,1.36.43,1.36,1.13a1.08,1.08,0,0,1-1,1.09Zm-1.57-1.85c.49,0,.72-.21.72-.56s-.26-.55-.69-.55h-.38v1.11Z"/><path d="M93.38,221.21l-1.33-2.13h.76l.91,1.52h0l.91-1.52h.72L94,221.2v1.46h-.66Z"/><path d="M97.37,220.87a1.83,1.83,0,1,1,1.84,1.88A1.81,1.81,0,0,1,97.37,220.87Zm3,0a1.14,1.14,0,1,0-1.13,1.25A1.15,1.15,0,0,0,100.34,220.87Z"/><path d="M103.63,221.27v-2.19h.68v2.2a.74.74,0,0,0,.76.84.75.75,0,0,0,.79-.84v-2.2h.67v2.19a1.45,1.45,0,1,1-2.9,0Z"/><path d="M111.94,222.66h-.82l-1.06-1.32h0v1.32h-.67v-3.58h1.07c.86,0,1.36.43,1.36,1.13a1.08,1.08,0,0,1-1,1.09Zm-1.56-1.85c.48,0,.72-.21.72-.56s-.26-.55-.7-.55H110v1.11Z"/><path d="M119.35,222.74a1.87,1.87,0,0,1,0-3.74,1.92,1.92,0,0,1,1,.25v.68a1.55,1.55,0,0,0-.91-.3,1.25,1.25,0,0,0,0,2.49,1.56,1.56,0,0,0,.91-.31v.69A2,2,0,0,1,119.35,222.74Z"/><path d="M122.71,220.87a1.83,1.83,0,1,1,1.83,1.88A1.81,1.81,0,0,1,122.71,220.87Zm3,0a1.14,1.14,0,1,0-1.14,1.25A1.15,1.15,0,0,0,125.68,220.87Z"/><path d="M132,222.66h-.64l-1.72-2.5h0v2.5H129v-3.58h.66l1.69,2.47h0v-2.47H132Z"/><path d="M136.87,219.25v.63a1.59,1.59,0,0,0-.87-.27c-.33,0-.59.14-.59.41s.22.36.63.53,1,.44,1,1.1a1.13,1.13,0,0,1-1.27,1.09,1.84,1.84,0,0,1-1.07-.33v-.67a1.57,1.57,0,0,0,1,.4c.36,0,.64-.18.64-.47s-.26-.4-.68-.58-1-.43-1-1,.5-1,1.23-1A1.76,1.76,0,0,1,136.87,219.25Z"/><path d="M140.44,219.7h-1.07v-.62h2.82v.62h-1.07v3h-.68Z"/><path d="M147.32,222.66h-.82l-1.06-1.32h0v1.32h-.67v-3.58h1.07c.86,0,1.36.43,1.36,1.13a1.08,1.08,0,0,1-1,1.09Zm-1.56-1.85c.48,0,.72-.21.72-.56s-.26-.55-.7-.55h-.38v1.11Z"/><path d="M149.81,221.27v-2.19h.67v2.2a.74.74,0,0,0,.76.84.75.75,0,0,0,.79-.84v-2.2h.67v2.19a1.39,1.39,0,0,1-1.46,1.48A1.37,1.37,0,0,1,149.81,221.27Z"/><path d="M157.12,222.74a1.87,1.87,0,0,1,0-3.74,1.94,1.94,0,0,1,1,.25v.68a1.55,1.55,0,0,0-.91-.3,1.25,1.25,0,0,0,0,2.49,1.56,1.56,0,0,0,.91-.31v.69A2,2,0,0,1,157.12,222.74Z"/><path d="M161.51,219.7h-1.08v-.62h2.83v.62h-1.08v3h-.67Z"/><path d="M165.79,219.08h.67v3.58h-.67Z"/><path d="M169.11,220.87a1.83,1.83,0,1,1,1.83,1.88A1.81,1.81,0,0,1,169.11,220.87Zm3,0a1.14,1.14,0,1,0-1.14,1.25A1.16,1.16,0,0,0,172.08,220.87Z"/><path d="M178.42,222.66h-.63l-1.72-2.5h0v2.5h-.65v-3.58h.66l1.7,2.47h0v-2.47h.64Z"/><g class="cls-2"><rect class="cls-3" y="183.21" width="181.82" height="28.71"/></g><path class="cls-4" d="M167.7,0H14.11a11,11,0,0,0-11,11V160.28a11,11,0,0,0,11,11H167.7a11,11,0,0,0,11-11V11a11,11,0,0,0-11-11"/><polygon class="cls-5" points="137.43 160.22 90.9 160.22 126.28 131.37 114.71 101.43 44.38 160.22 15.62 110.99 77.25 29.22 90.9 11.1 99.52 22.52 99.52 22.53 129.8 62.7 92.85 39.17 73.36 87.83 112.22 62.71 141.87 78.73 166.19 110.99 137.43 160.22"/></g></g></svg>